<svg width="189" height="72" viewBox="0 0 189 72" fill="none" xmlns="http://www.w3.org/2000/svg">
<path fill-rule="evenodd" clip-rule="evenodd" d="M15.8385 1.85766C6.75655 5.07866 2.62255 10.4447 2.62255 19.0157C2.62255 24.5817 4.15155 28.3367 7.77755 31.6747C10.6005 34.2727 20.9515 39.5907 25.1225 40.5847C28.8305 41.4677 35.5296 44.7277 37.8726 46.7867C40.5706 49.1587 40.1885 55.5407 37.1675 58.5607C35.0985 60.6307 33.7565 61.0157 28.6185 61.0157C25.1265 61.0157 21.2705 60.3677 19.5895 59.4987C16.6425 57.9747 13.6225 53.4537 13.6225 50.5657C13.6225 49.3267 12.3315 49.0157 7.18155 49.0157C3.63855 49.0157 0.46855 49.4567 0.13555 49.9947C-0.19745 50.5337 0.104549 52.8967 0.806549 55.2447C2.67755 61.5097 9.11655 67.5217 16.1375 69.5627C22.4015 71.3837 34.2505 71.6457 39.5205 70.0797C55.8246 65.2357 58.7055 45.9807 44.5485 36.4737C42.0565 34.7997 35.7675 31.9107 30.5725 30.0517C20.7105 26.5247 15.6225 22.7997 15.6225 19.1087C15.6225 17.9747 16.9135 15.6027 18.4905 13.8367C21.0415 10.9827 21.9676 10.6207 26.8356 10.5707C34.7586 10.4907 37.8485 12.5317 40.0005 19.2657C40.4595 20.7017 41.7565 21.0157 47.2215 21.0157H53.8846L53.2785 17.2817C52.3885 11.7987 47.8526 6.01066 42.1426 3.07066C35.5096 -0.34534 23.5975 -0.894341 15.8385 1.85766ZM81.1226 2.08766C68.5006 7.05566 63.0866 17.6977 63.3536 37.0157C63.5646 52.3437 66.9576 60.1837 76.1226 66.5267C86.8776 73.9697 108.89 72.5227 118.373 63.7487C120.498 61.7827 120.623 60.8967 120.623 47.8127V33.9597L106.873 34.2377L93.1226 34.5157L93.1005 39.2657L93.0776 44.0157H99.8505H106.623V50.9017C106.623 57.7507 106.605 57.7967 103.222 59.4017C101.351 60.2897 97.3676 61.0157 94.3696 61.0157C87.3146 61.0157 82.9766 58.2207 79.6226 51.5147C77.4106 47.0907 77.1226 45.2497 77.1226 35.5157C77.1226 25.7687 77.4076 23.9517 79.6226 19.5677C83.0556 12.7737 86.1506 10.7297 93.0096 10.7297C99.7896 10.7297 103.253 12.7757 105.49 18.1047L107.123 21.9957L113.373 22.0057C118.87 22.0147 119.623 21.7847 119.623 20.0987C119.623 16.6957 115.936 9.60166 112.484 6.36166C105.768 0.0586605 91.2906 -1.91434 81.1226 2.08766ZM149.204 2.02966C142.937 4.47766 138.257 9.02666 134.83 16.0037C132.309 21.1377 132.123 22.4077 132.123 34.5157C132.123 50.0037 132.726 53.3177 136.607 59.1777C142.937 68.7347 153.866 72.9927 166.74 70.9197C176.784 69.3017 182.137 65.4477 186.051 57.0157C190.042 48.4177 189.844 48.0157 181.623 48.0157C175.968 48.0157 174.623 48.3137 174.623 49.5657C174.623 52.4517 171.541 57.0947 168.324 59.0557C164.131 61.6137 157.115 61.6137 152.922 59.0557C147.721 55.8847 146.326 51.9767 145.815 39.1387C145.224 24.3107 146.548 18.1667 151.218 14.0667C154.334 11.3307 155.368 11.0157 161.235 11.0157C167.138 11.0157 168.063 11.3017 170.712 13.9507C172.326 15.5647 173.923 18.2647 174.26 19.9507C174.674 22.0227 175.481 23.0387 176.748 23.0867C185.028 23.4027 188.076 23.1567 188.413 22.1447C189.177 19.8527 182.877 8.31066 179.423 5.67666C171.785 -0.149341 158.799 -1.71634 149.204 2.02966Z" fill="white"/>
</svg>
